<?xml version="1.0" encoding="utf-8" ?>
<svg xmlns="http://www.w3.org/2000/svg" xmlns:xlink="http://www.w3.org/1999/xlink" width="1024" height="1436">
	<rect fill="rgb(23,23,23)" stroke="none" width="1024" height="1436"/>
	<defs>
		<clipPath id="clip_0">
			<rect width="1024" height="1436" clip-rule="evenodd"/>
		</clipPath>
	</defs>
	<g clip-path="url(#clip_0)">
		<path fill="rgb(0,0,0)" fill-opacity="0.40000001" stroke="none" transform="translate(32 632)" d="M0 23C0 10.2975 10.2975 0 23 0C35.7025 0 46 10.2975 46 23C46 35.7025 35.7025 46 23 46C10.2975 46 0 35.7025 0 23Z"/>
	</g>
	<defs>
		<clipPath id="clip_1">
			<rect width="1024" height="1436" clip-rule="evenodd"/>
		</clipPath>
	</defs>
	<g clip-path="url(#clip_1)">
		<path fill="rgb(0,0,0)" fill-opacity="0.14117648" stroke="none" transform="translate(623 484.785)" d="M0 0L49.7059 0L49.7059 42.2154L0 42.2154L0 0Z"/>
	</g>
	<defs>
		<clipPath id="clip_2">
			<rect width="1024" height="1436" clip-rule="evenodd"/>
		</clipPath>
	</defs>
	<g clip-path="url(#clip_2)">
		<path fill="rgb(0,0,0)" fill-opacity="0.14117648" stroke="none" transform="matrix(1 0 0 1 372 644.069)" d="M0 0L46.9983 0L46.9983 36.931L0 36.931L0 0Z"/>
	</g>
	<defs>
		<clipPath id="clip_3">
			<rect width="1024" height="1436" clip-rule="evenodd"/>
		</clipPath>
	</defs>
	<g clip-path="url(#clip_3)">
		<path fill="rgb(0,0,0)" fill-opacity="0.14117648" stroke="none" transform="matrix(1 0 0 1 429 879)" d="M0 0L46.9983 0L46.9983 36.931L0 36.931L0 0Z"/>
	</g>
	<defs>
		<clipPath id="clip_4">
			<rect width="1024" height="1436" clip-rule="evenodd"/>
		</clipPath>
	</defs>
	<g clip-path="url(#clip_4)">
		<path fill="rgb(0,0,0)" fill-opacity="0.56862748" stroke="none" transform="translate(939 567)" d="M0 23.5C0 10.5213 10.969 0 24.5 0C38.031 0 49 10.5213 49 23.5C49 36.4787 38.031 47 24.5 47C10.969 47 0 36.4787 0 23.5Z"/>
	</g>
	<defs>
		<clipPath id="clip_5">
			<rect width="1024" height="1436" clip-rule="evenodd"/>
		</clipPath>
	</defs>
	<g clip-path="url(#clip_5)">
		<path fill="rgb(71,112,198)" fill-opacity="0.80000001" stroke="none" transform="translate(32 411)" d="M0 19.5C0 8.73045 8.73045 0 19.5 0C30.2696 0 39 8.73045 39 19.5C39 30.2696 30.2696 39 19.5 39C8.73045 39 0 30.2696 0 19.5Z"/>
	</g>
	<defs>
		<clipPath id="clip_6">
			<rect width="1024" height="1436" clip-rule="evenodd"/>
		</clipPath>
	</defs>
	<g clip-path="url(#clip_6)">
		<path fill="rgb(71,112,198)" fill-opacity="0.89803922" stroke="none" transform="translate(34 1281)" d="M0 17C0 7.61116 8.28273 0 18.5 0C28.7173 0 37 7.61116 37 17C37 26.3888 28.7173 34 18.5 34C8.28273 34 0 26.3888 0 17Z"/>
	</g>
	<defs>
		<clipPath id="clip_7">
			<rect width="1024" height="1436" clip-rule="evenodd"/>
		</clipPath>
	</defs>
	<g clip-path="url(#clip_7)">
		<path fill="rgb(0,0,0)" fill-opacity="0.16862746" stroke="none" transform="translate(172 725)" d="M0 33C0 14.7746 14.103 0 31.5 0C48.897 0 63 14.7746 63 33C63 51.2254 48.897 66 31.5 66C14.103 66 0 51.2254 0 33Z"/>
	</g>
	<defs>
		<clipPath id="clip_8">
			<rect width="1024" height="1436" clip-rule="evenodd"/>
		</clipPath>
	</defs>
	<g clip-path="url(#clip_8)">
		<path fill="rgb(0,204,106)" fill-opacity="0.49803922" stroke="none" transform="translate(45 948)" d="M0 10C0 4.47715 4.25329 0 9.5 0C14.7467 0 19 4.47715 19 10C19 15.5228 14.7467 20 9.5 20C4.25329 20 0 15.5228 0 10Z"/>
	</g>
	<defs>
		<clipPath id="clip_9">
			<rect width="1024" height="1436" clip-rule="evenodd"/>
		</clipPath>
	</defs>
	<g clip-path="url(#clip_9)">
		<path fill="rgb(0,204,106)" fill-opacity="0.74901962" stroke="none" transform="translate(946 783)" d="M0 18C0 8.05887 8.05887 0 18 0C27.9411 0 36 8.05887 36 18C36 27.9411 27.9411 36 18 36C8.05887 36 0 27.9411 0 18Z"/>
	</g>
	<defs>
		<clipPath id="clip_10">
			<rect width="1024" height="1436" clip-rule="evenodd"/>
		</clipPath>
	</defs>
	<g clip-path="url(#clip_10)">
		<path fill="rgb(252,72,80)" stroke="none" transform="translate(934 994)" d="M0 19C0 8.50659 8.95431 0 20 0C31.0457 0 40 8.50659 40 19C40 29.4934 31.0457 38 20 38C8.95431 38 0 29.4934 0 19Z"/>
	</g>
	<defs>
		<clipPath id="clip_11">
			<rect width="1024" height="1436" clip-rule="evenodd"/>
		</clipPath>
	</defs>
	<g clip-path="url(#clip_11)">
		<path fill="rgb(252,72,80)" fill-opacity="0.49803922" stroke="none" transform="translate(968 420)" d="M0 9.5C0 4.25329 4.2533 0 9.5 0C14.7467 0 19 4.25329 19 9.5C19 14.7467 14.7467 19 9.5 19C4.2533 19 0 14.7467 0 9.5Z"/>
	</g>
	<defs>
		<clipPath id="clip_12">
			<rect width="1024" height="1436" clip-rule="evenodd"/>
		</clipPath>
	</defs>
	<g clip-path="url(#clip_12)">
		<path fill="rgb(252,72,80)" fill-opacity="0.74901962" stroke="none" transform="matrix(-1 0 0 1 62 777)" d="M0 11.5C0 5.14873 4.92487 0 11 0C17.0751 0 22 5.14873 22 11.5C22 17.8513 17.0751 23 11 23C4.92487 23 0 17.8513 0 11.5Z"/>
	</g>
	<defs>
		<clipPath id="clip_13">
			<rect width="1024" height="1436" clip-rule="evenodd"/>
		</clipPath>
	</defs>
	<g clip-path="url(#clip_13)">
		<path fill="rgb(0,0,0)" stroke="none" transform="translate(965 321)" d="M0 17C0 7.61116 8.28273 0 18.5 0C28.7173 0 37 7.61116 37 17C37 26.3888 28.7173 34 18.5 34C8.28273 34 0 26.3888 0 17Z"/>
	</g>
	<defs>
		<clipPath id="clip_14">
			<rect width="1024" height="1436" clip-rule="evenodd"/>
		</clipPath>
	</defs>
	<g clip-path="url(#clip_14)">
		<path fill="rgb(0,204,106)" stroke="none" transform="translate(17 178)" d="M0 20C0 8.9543 9.40202 0 21 0C32.598 0 42 8.9543 42 20C42 31.0457 32.598 40 21 40C9.40202 40 0 31.0457 0 20Z"/>
	</g>
	<defs>
		<clipPath id="clip_15">
			<rect width="1024" height="1436" clip-rule="evenodd"/>
		</clipPath>
	</defs>
	<g clip-path="url(#clip_15)">
		<path fill="rgb(0,0,0)" stroke="none" transform="translate(588 363)" d="M0 0.5C0 0.223858 0.223858 0 0.5 0C0.776142 0 1 0.223858 1 0.5C1 0.776142 0.776142 1 0.5 1C0.223858 1 0 0.776142 0 0.5Z"/>
	</g>
	<defs>
		<clipPath id="clip_16">
			<rect width="1024" height="1436" clip-rule="evenodd"/>
		</clipPath>
	</defs>
	<g clip-path="url(#clip_16)">
		<path fill="rgb(0,0,0)" stroke="none" transform="translate(890 1209)" d="M0 0L31 0L31 30L0 30L0 0Z"/>
	</g>
	<defs>
		<clipPath id="clip_17">
			<rect x="890" y="1209" width="31" height="30" clip-rule="evenodd"/>
		</clipPath>
	</defs>
	<g clip-path="url(#clip_17)">
		<path fill="none" stroke="rgb(252,72,80)" stroke-width="2" stroke-miterlimit="4" transform="translate(890 1209)" d="M0 0L31 0L31 30L0 30L0 0Z"/>
	</g>
	<defs>
		<clipPath id="clip_18">
			<rect width="1024" height="1436" clip-rule="evenodd"/>
		</clipPath>
	</defs>
	<g clip-path="url(#clip_18)">
		<path fill="rgb(86,86,86)" fill-opacity="0.49803922" stroke="none" transform="translate(789 854)" d="M0 0L39 0L39 43L0 43L0 0Z"/>
	</g>
	<defs>
		<clipPath id="clip_19">
			<rect x="789" y="854" width="39" height="43" clip-rule="evenodd"/>
		</clipPath>
	</defs>
	<g clip-path="url(#clip_19)">
		<path fill="none" stroke="rgb(0,0,0)" stroke-width="4" stroke-miterlimit="4" transform="translate(789 854)" d="M0 0L39 0L39 43L0 43L0 0Z"/>
	</g>
	<defs>
		<clipPath id="clip_20">
			<rect width="1024" height="1436" clip-rule="evenodd"/>
		</clipPath>
	</defs>
	<g clip-path="url(#clip_20)">
		<path fill="rgb(71,112,198)" fill-opacity="0.74901962" stroke="none" transform="translate(977 232)" d="M0 9.5C0 4.25329 4.47715 0 10 0C15.5228 0 20 4.25329 20 9.5C20 14.7467 15.5228 19 10 19C4.47715 19 0 14.7467 0 9.5Z"/>
	</g>
	<defs>
		<clipPath id="clip_21">
			<rect width="1024" height="1436" clip-rule="evenodd"/>
		</clipPath>
	</defs>
	<g clip-path="url(#clip_21)">
		<path fill="rgb(0,0,0)" fill-opacity="0.2" stroke="none" transform="translate(166 273)" d="M0 0L33 0L33 77L0 77L0 0Z"/>
	</g>

</svg>